<?xml version="1.0" encoding="utf-8"?>
<!-- Generator: Adobe Illustrator 18.1.1, SVG Export Plug-In . SVG Version: 6.00 Build 0)  -->
<svg class="svg-logo" version="1.1" id="Слой_1" height="35px" width="210px" xmlns="http://www.w3.org/2000/svg" xmlns:xlink="http://www.w3.org/1999/xlink" x="0px" y="0px"
	 viewBox="0 0 248.5 71.5" enable-background="new 0 0 248.5 71.5" xml:space="preserve">
<g>
	<g>
		<path fill="#95EF6C" d="M69.4,16.8c-1.4-1.9-3-3.6-4.6-5.2c-0.4-0.4-0.8-0.8-1.2-1.1c-3.7-3.3-7.9-5.9-12.4-7.7
			C46.6,1,41.7,0,36.6,0C25.8,0,16,4.3,8.5,11.5c-1.7,1.6-3.3,3.4-4.8,5.4c-1.4,1.8-2.6,3.8-3.7,5.8l10.6,9.5c1-2.1,2.2-4.1,3.5-6
			c1.5-1.9,3.1-3.7,5-5.2c4.9-4,11-6.4,17.6-6.4c0.5,0,0.9,0,1.4,0.1c5.5,0.3,10.6,2.2,14.9,5.4c0.5,0.3,0.9,0.7,1.4,1L20.3,51.5
			c4.3,3.2,9.4,5.1,14.9,5.4l27.6-24.7l10.5-9.4C72.1,20.7,70.8,18.7,69.4,16.8z"/>
		<path fill="#6EC1FF" d="M59.2,45.4c-1.5,1.9-3.1,3.7-5,5.2c-4.9,4-11,6.4-17.6,6.4c-4.6,0-9-1.2-12.8-3.3c-0.1,0-0.1-0.1-0.2-0.1
			c-0.5-0.3-1.1-0.6-1.6-0.9c-0.1,0-0.1-0.1-0.2-0.1c-0.5-0.3-1-0.7-1.5-1.1c0,0,0,0,0,0l0,0c-0.5-0.3-0.9-0.7-1.4-1L53,20l0,0
			c-4.3-3.2-9.4-5.1-14.9-5.4l0,0L10.5,39.3L0,48.7c1.1,2.1,2.4,4.1,3.9,6c1.4,1.9,3,3.6,4.6,5.2c7.5,7.2,17.4,11.6,28.2,11.6
			c10.7,0,20.6-4.3,28-11.5c1.7-1.6,3.3-3.4,4.8-5.4c1.4-1.8,2.6-3.8,3.7-5.8l-10.6-9.5C61.7,41.5,60.5,43.5,59.2,45.4z"/>
	</g>
	<g>
		<g>
			<path fill="#fff" d="M105.4,17.8l-9.8,12.1h9.8v5.3H87.5v-5.3l10.9-12.3H87.8v-5h17.6V17.8z"/>
			<path fill="#fff" d="M124.8,13.7c2,1.1,3,3.2,3,6.2l0,10.6c0,1.9-1,3.2-2.8,4.1s-4.5,1.3-8.1,1.3c-6.6,0-9.9-2.6-9.9-7.7
				c0-2.2,0.7-3.9,2-5.1c1.4-1.2,3.4-1.8,6-1.8c1.1,0,2.2,0.1,3.3,0.4c1.1,0.3,2,0.6,2.9,1.1v-1.4c0-2.6-1.7-3.9-5-3.9
				c-1.3,0-2.6,0.2-3.9,0.7c-1.4,0.5-2.4,1-3.2,1.7v-5.9c0.8-0.5,2-1,3.7-1.4c1.6-0.4,3.4-0.6,5.3-0.6
				C120.6,12,122.8,12.5,124.8,13.7z M120.4,30.8c0.6-0.2,0.9-0.6,0.9-1.2v-3.5c-1-0.4-2.2-0.5-3.4-0.5c-1.5,0-2.5,0.2-3.2,0.6
				c-0.7,0.4-1,1.1-1,2c0,0.9,0.3,1.6,1,2.1c0.7,0.5,1.5,0.8,2.5,0.8C118.7,31.2,119.8,31,120.4,30.8z"/>
			<path fill="#fff" d="M164.3,13.8c1.5,1.2,2.3,3.3,2.3,6.2v15.1h-6.6V21.4c0-2.6-1.5-3.9-4.4-3.9c-1.2,0-2.2,0.3-3.1,0.8
				c0.1,0.7,0.1,1.3,0.1,1.7v15.1h-6.6V21.4c0-2.6-1.5-3.9-4.4-3.9c-1.2,0-2.3,0.3-3.3,0.8v16.9h-6.6V14.5c1.2-0.6,2.9-1.2,5.3-1.7
				c2.4-0.5,4.5-0.8,6.4-0.8c3,0,5.2,0.5,6.6,1.6c1.2-0.5,2.4-0.9,3.7-1.2c1.3-0.3,2.5-0.4,3.7-0.4C160.4,12,162.8,12.6,164.3,13.8z
				"/>
			<path fill="#fff" d="M187.3,17.8l-9.8,12.1h9.8v5.3h-17.9v-5.3l10.9-12.3h-10.6v-5h17.6V17.8z"/>
			<path fill="#fff" d="M206.7,13.7c2,1.1,3,3.2,3,6.2l0,10.6c0,1.9-1,3.2-2.8,4.1c-1.8,0.8-4.5,1.3-8.1,1.3
				c-6.6,0-9.9-2.6-9.9-7.7c0-2.2,0.7-3.9,2-5.1c1.4-1.2,3.4-1.8,6-1.8c1.1,0,2.2,0.1,3.3,0.4c1.1,0.3,2,0.6,2.9,1.1v-1.4
				c0-2.6-1.7-3.9-5-3.9c-1.3,0-2.6,0.2-3.9,0.7c-1.4,0.5-2.4,1-3.2,1.7v-5.9c0.8-0.5,2-1,3.7-1.4c1.6-0.4,3.4-0.6,5.3-0.6
				C202.5,12,204.7,12.5,206.7,13.7z M202.3,30.8c0.6-0.2,0.9-0.6,0.9-1.2v-3.5c-1-0.4-2.2-0.5-3.4-0.5c-1.5,0-2.5,0.2-3.2,0.6
				c-0.7,0.4-1,1.1-1,2c0,0.9,0.3,1.6,1,2.1c0.7,0.5,1.5,0.8,2.5,0.8C200.6,31.2,201.7,31,202.3,30.8z"/>
			<path fill="#fff" d="M246.2,13.8c1.5,1.2,2.3,3.3,2.3,6.2v15.1h-6.6V21.4c0-2.6-1.5-3.9-4.4-3.9c-1.2,0-2.2,0.3-3.1,0.8
				c0.1,0.7,0.1,1.3,0.1,1.7v15.1h-6.6V21.4c0-2.6-1.5-3.9-4.4-3.9c-1.2,0-2.3,0.3-3.3,0.8v16.9h-6.6V14.5c1.2-0.6,2.9-1.2,5.3-1.7
				c2.4-0.5,4.5-0.8,6.4-0.8c3,0,5.2,0.5,6.6,1.6c1.2-0.5,2.4-0.9,3.7-1.2c1.3-0.3,2.5-0.4,3.7-0.4C242.4,12,244.7,12.6,246.2,13.8z
				"/>
		</g>
		<text x="115px" fill="#fff" font-size="30px" font-weight="600" y="55px" class="text"  dominant-baseline="middle" text-anchor="middle">ERP</text>
	</g>

</g>
</svg>
